<svg width="316" height="179" viewBox="0 0 316 179" fill="none" xmlns="http://www.w3.org/2000/svg">
<path d="M52.9618 134.772C55.4822 135.356 58.8245 136.078 62.8882 136.781C66.952 137.503 71.7372 138.224 77.0794 139.064C87.6634 140.79 100.339 142.342 113.945 143.329C120.739 143.804 127.762 144.123 134.839 144.306C141.917 144.461 149.049 144.434 156.062 144.269C163.085 144.087 169.988 143.712 176.627 143.219C183.257 142.708 189.613 142.032 195.54 141.301C209.219 139.493 222.835 137.037 236.058 133.32C242.67 131.466 249.181 129.329 255.5 126.772C261.811 124.215 267.947 121.257 273.637 117.695C279.426 114.015 285.134 110.152 290.357 105.878C295.544 101.595 300.384 96.8832 303.58 91.4314C305.142 88.701 306.247 85.8062 306.758 82.7926C307.261 79.8064 307.261 76.5373 306.603 73.7886C305.27 68.0993 300.786 63.3233 295.362 59.844C289.892 56.3373 283.609 53.8167 277.152 51.9172L267.171 49.2051C266.34 48.9859 265.509 48.7485 264.669 48.5384L262.149 47.9541L257.108 46.7852C243.656 43.7533 230.031 41.5525 216.315 40.3379C188.873 37.8814 161.139 39.7717 134.154 45.3331C129.954 46.2646 124.986 47.2692 120 48.6207C117.507 49.2782 114.959 49.8625 112.502 50.5474C110.046 51.2415 107.644 51.9083 105.379 52.5475C104.238 52.8489 103.133 53.1502 102.074 53.4333C101.014 53.7346 100.001 54.036 99.0418 54.3099C97.1241 54.8578 95.3982 55.3236 93.9645 55.6614C91.0787 56.3372 89.3163 56.538 89.2797 56.0084C89.2432 55.4513 90.3573 54.5656 92.5033 53.3784C93.5809 52.7849 94.9142 52.1274 96.494 51.3969C98.083 50.6937 99.882 49.817 101.964 49.0682C110.238 45.8811 122.31 42.0183 137.323 39.0504C155.496 35.5254 174.034 33.6806 192.581 33.6806C194.9 33.6076 197.22 33.7538 199.53 33.7995L206.48 34.0095L213.411 34.5027C215.721 34.6853 218.041 34.7765 220.333 35.087L227.237 35.8633C228.388 36.0003 229.538 36.1007 230.689 36.2742L234.122 36.8039L240.99 37.854C243.282 38.2102 245.537 38.7124 247.811 39.1324C250.085 39.5799 252.359 39.9908 254.624 40.4657L261.381 42.0366C265.902 43.0137 270.349 44.2831 274.806 45.4794C279.244 46.6117 283.801 48.027 288.138 49.8443C292.494 51.6524 296.75 53.8441 300.667 56.6841C304.539 59.5607 308.083 63.177 310.393 67.7065C311.416 70.0169 312.32 72.446 312.557 74.9847C312.621 75.6148 312.758 76.2541 312.758 76.8659L312.795 78.7106C312.795 79.0211 312.813 79.3225 312.804 79.633L312.731 80.5553L312.585 82.4C311.982 87.3313 310.046 92.0434 307.416 96.098C304.777 100.18 301.508 103.678 298.065 106.865C293.015 111.531 287.536 115.558 281.947 119.339L277.719 122.115C276.294 123.037 274.806 123.905 273.344 124.8L268.851 127.256C267.326 128.005 265.801 128.772 264.267 129.503C251.912 135.247 238.898 139.128 225.776 142.16C219.21 143.676 212.589 144.918 205.941 145.959C199.302 147.009 192.627 147.867 185.942 148.525C179.257 149.201 172.554 149.703 165.852 150.023C159.149 150.37 152.437 150.534 145.725 150.543C132.301 150.598 118.886 149.995 105.507 148.835C98.8227 148.214 92.1472 147.484 85.4991 146.571C78.8236 145.612 72.2851 144.589 65.6552 143.539C59.0345 142.461 52.359 141.201 45.7749 139.32C39.209 137.402 32.707 134.854 26.762 131.192C23.7667 129.393 20.9632 127.302 18.3332 125.019C16.9908 123.905 15.7671 122.654 14.516 121.439C13.338 120.152 12.1234 118.882 11.0459 117.503C6.61684 112.088 3.1832 105.741 1.33854 98.8559C-0.268694 92.6644 -0.460466 86.0253 0.93673 79.7699C1.64903 76.6467 2.61702 73.5875 3.94116 70.7018C5.27443 67.8253 6.81774 65.0491 8.61675 62.4556C10.434 59.8804 12.4065 57.4239 14.5891 55.1683C16.7808 52.9218 19.1003 50.8124 21.5933 48.9039C24.0955 47.0044 26.689 45.2783 29.3829 43.7259C32.0769 42.1917 34.8439 40.7855 37.6657 39.5344C40.4966 38.3016 43.364 37.1873 46.2589 36.1828C49.1628 35.1966 52.0851 34.3108 55.0256 33.4981C60.9066 31.9182 66.815 30.585 72.7417 29.4709L81.6271 27.7814C84.595 27.27 87.5812 26.8225 90.5582 26.3385L95.0238 25.6353L99.5076 25.0509C102.503 24.6765 105.48 24.2473 108.484 23.9186C156.418 18.5307 205.229 21.2247 252.295 31.6991C255.053 32.3383 257.829 32.8863 260.569 33.6077L268.797 35.7079C274.294 37.096 279.91 38.8952 285.216 41.3608C290.531 43.8265 295.626 47.0043 300.037 51.0772L300.877 51.826C301.151 52.0817 301.398 52.3647 301.663 52.6387L303.206 54.2825C303.745 54.8122 304.183 55.4239 304.658 56.0084L306.055 57.7801C306.905 59.0221 307.736 60.2822 308.521 61.5698L309.589 63.5605C309.936 64.2272 310.32 64.8755 310.594 65.5787C311.827 68.3183 312.831 71.1492 313.553 74.0441C314.301 76.9572 314.767 79.8065 315.105 82.8383C315.616 89.0298 314.484 95.0569 312.639 100.664C310.777 106.289 308.183 111.568 305.169 116.544C302.147 121.521 298.686 126.206 294.841 130.562C290.987 134.918 286.768 138.973 282.002 142.498C279.636 144.169 277.289 145.739 274.924 147.356L273.153 148.561L272.267 149.164L271.354 149.721L267.692 151.949C265.244 153.429 262.833 154.963 260.277 156.26C257.738 157.584 255.254 158.999 252.679 160.259L244.88 163.867C242.259 165.017 239.556 165.994 236.899 167.072C226.168 171.099 215.046 174.094 203.759 176.049L195.266 177.318L186.727 178.149C185.303 178.313 183.878 178.368 182.454 178.432L178.171 178.633C176.746 178.679 175.312 178.807 173.888 178.788H169.605C164.674 178.88 159.761 178.569 154.848 178.368C152.391 178.24 149.953 177.985 147.505 177.793L143.834 177.482C142.611 177.382 141.396 177.199 140.182 177.071L132.876 176.195C130.447 175.866 128.036 175.464 125.607 175.099C120.785 174.405 115.863 173.501 111.06 172.359C101.416 170.086 91.9645 166.953 82.9147 162.844C73.8741 158.734 65.2078 153.639 57.4273 147.31C49.656 141 42.7704 133.402 37.7204 124.59C32.6704 115.805 29.5199 105.878 28.8441 95.7234C28.141 85.5778 29.8852 75.3684 33.4193 65.9715C36.9534 56.5473 42.1951 47.8719 48.5327 40.1736C54.4868 32.9137 62.039 25.7084 70.7692 19.7269C75.1251 16.7316 79.7642 14.0194 84.5768 11.7273C85.773 11.152 87.0059 10.6316 88.2113 10.0837C89.435 9.56317 90.6769 9.09733 91.9006 8.6042C94.3754 7.72753 96.841 6.93307 99.2793 6.12032C101.316 5.51761 103.544 4.96972 105.891 4.33048C107.06 3.9926 108.283 3.74589 109.525 3.49933C110.776 3.24363 112.046 2.97893 113.343 2.7141C114.63 2.42188 115.963 2.2301 117.306 2.0292C118.648 1.8283 120.009 1.62746 121.379 1.41743C122.749 1.17999 124.137 1.09779 125.534 0.942545C126.931 0.805565 128.328 0.668406 129.725 0.531426C140.93 -0.381774 152.135 0.010884 160.409 0.741444C167.55 1.38982 174.929 2.27565 181.851 3.28017C182.846 3.41715 183.823 3.54517 184.773 3.68215C185.723 3.83739 186.645 3.98348 187.54 4.12046C189.339 4.41269 191.047 4.69571 192.672 4.96054C195.896 5.56325 198.772 6.09297 201.284 6.62263C203.795 7.16141 205.959 7.65442 207.777 8.09275C209.594 8.55849 211.064 8.96951 212.206 9.32566C216.781 10.7685 216.05 11.4078 210.589 11.4261C208.188 11.4626 210.69 12.6224 203.083 11.4352C202.772 11.3895 202.142 11.2889 201.85 11.2432C190.289 9.64515 178.655 7.85531 166.884 6.71381C155.121 5.55405 143.195 4.98791 131.314 5.84632C129.497 5.9833 127.68 6.20254 125.863 6.37604L123.141 6.65919L120.438 7.07008C118.639 7.36231 116.822 7.57231 115.041 7.94672L109.699 9.0608C108.804 9.22517 107.927 9.46257 107.051 9.70914L104.421 10.4123L101.791 11.1155C100.914 11.3529 100.065 11.6816 99.1971 11.9556L94.0375 13.6908C92.3664 14.3574 90.6678 14.9784 89.0332 15.7455C75.8374 21.59 63.9293 30.4298 54.4503 41.3334C45.0078 52.2187 37.9031 65.3139 35.2913 79.3772C34.643 82.8839 34.2411 86.4364 34.2229 89.9887L34.1955 91.322C34.1955 91.7694 34.2229 92.2077 34.2411 92.6552C34.2868 93.541 34.2868 94.4359 34.3599 95.3125C34.5334 97.075 34.6795 98.8467 35.0082 100.6C35.2365 102.362 35.7114 104.079 36.0767 105.814C36.5698 107.522 37.0264 109.248 37.6474 110.91C38.8345 114.262 40.2591 117.54 42.0125 120.636C43.7567 123.74 45.7201 126.736 47.9118 129.558C50.1308 132.361 52.5417 135.028 55.1078 137.53C60.2856 142.507 66.1027 146.863 72.3033 150.598C84.7229 158.068 98.5487 163.236 112.749 166.515C116.301 167.346 119.872 168.022 123.497 168.588C127.141 169.117 130.766 169.729 134.419 170.195L139.898 170.843C141.725 171.044 143.551 171.318 145.378 171.437L150.866 171.884C152.692 172.04 154.528 172.204 156.363 172.25C171.011 173.035 185.723 172.551 200.161 170.323L203.485 169.83C204.599 169.675 205.685 169.401 206.781 169.191L213.365 167.839C215.539 167.3 217.694 166.697 219.867 166.131L223.118 165.273L226.315 164.232C228.442 163.529 230.579 162.853 232.698 162.132L238.953 159.675C239.994 159.255 241.045 158.881 242.067 158.424L245.117 157.018C247.145 156.068 249.199 155.164 251.218 154.187L257.163 151.027C258.149 150.497 259.144 149.986 260.13 149.438L263.007 147.694L268.769 144.214C270.641 142.982 272.486 141.694 274.349 140.443C276.194 139.174 278.12 137.941 279.801 136.617C281.527 135.292 283.18 133.841 284.787 132.343C288.001 129.338 290.978 126.051 293.718 122.59C299.179 115.65 303.79 107.96 306.704 99.7599C308.146 95.6688 309.114 91.4407 309.315 87.2491C309.37 86.199 309.352 85.1578 309.315 84.1258L309.188 82.5826C309.124 82.0621 309.023 81.5141 308.95 80.9845C308.767 79.916 308.658 78.8385 308.411 77.7883L307.672 74.6469C306.512 70.5193 304.813 66.5834 302.512 63.0219C300.22 59.4604 297.343 56.2915 294.047 53.5885C290.741 50.8763 286.997 48.6847 283.07 46.8309C279.134 44.9953 275.006 43.4701 270.751 42.3195C268.431 41.6437 265.984 41.0958 263.601 40.4839C261.199 39.8995 258.815 39.2603 256.405 38.7215C253.985 38.201 251.574 37.6714 249.154 37.1509L245.528 36.3654L241.876 35.6714C239.437 35.2148 236.999 34.7492 234.561 34.2926C232.123 33.8086 229.657 33.4798 227.21 33.0597C224.753 32.6671 222.296 32.2287 219.831 31.8634C217.356 31.5164 214.881 31.1695 212.397 30.8224L212.735 30.8681C191.987 28.1742 171.048 27.2061 150.145 27.5165C145.204 27.5074 140.255 27.8179 135.287 27.9914C132.803 28.0554 130.328 28.2928 127.844 28.448C125.36 28.6215 122.876 28.8042 120.392 28.9778C110.466 29.9275 100.503 31.0142 90.613 32.6397L83.1887 33.836L75.8009 35.2422C70.8605 36.1463 65.9566 37.1875 61.1349 38.3746C56.3041 39.5618 51.5463 40.9223 46.9346 42.5844C42.3138 44.2281 37.8483 46.1915 33.6293 48.5293C29.3829 50.8488 25.4744 53.5976 21.9586 56.7664C18.4154 59.9169 15.3562 63.5697 12.8175 67.4874C10.2605 71.405 8.41584 75.7062 7.28347 80.117C6.1785 84.546 5.99586 89.112 6.6351 93.5684C7.25608 98.034 8.86331 102.363 11.0276 106.362C13.2101 110.371 15.9771 114.079 19.2007 117.348C22.4152 120.617 26.0406 123.485 29.9126 125.886C33.7937 128.279 37.9487 130.224 42.2773 131.759C44.9621 132.754 48.761 133.777 52.9618 134.772Z" fill="#4196F7"/>
</svg>
