<svg width="567" height="27" viewBox="0 0 567 27" fill="none" xmlns="http://www.w3.org/2000/svg">
<path fill-rule="evenodd" clip-rule="evenodd" d="M386.261 0.0576463C381.546 0.0415321 377.746 0.0285417 375.544 0.0249013C374.655 0.0249013 373.809 0.0517757 373.044 0.0760391C372.415 0.0960054 371.842 0.114204 371.347 0.114204C353.212 -0.0272141 334.03 -0.00588925 314.838 0.0154472C304.601 0.0268288 294.36 0.0382136 284.274 0.0249013C278.873 0.0158998 273.465 0.0831242 268.056 0.150372C265.831 0.178041 263.605 0.205713 261.379 0.228082C256.411 0.0995793 251.483 0.204664 246.573 0.309383C244.246 0.359003 241.923 0.40854 239.602 0.433107C220.093 0.640242 200.543 0.631944 180.998 0.623647C174.062 0.620703 167.127 0.617759 160.195 0.624441C147.507 0.639448 134.818 0.648939 122.128 0.65843C91.6713 0.681212 61.2115 0.703996 30.7581 0.803046C28.565 0.809412 26.3758 0.770503 24.193 0.731707C17.6282 0.615028 11.1209 0.49937 4.73562 1.61942C4.67822 1.6258 4.5921 1.63856 4.50598 1.65132C4.41986 1.66408 4.33374 1.67684 4.27634 1.68322C2.38614 1.94098 2.21468 2.3434 2.04303 2.74629C1.95984 2.94156 1.87659 3.13694 1.59758 3.31601C-2.29304 5.7907 0.781205 6.56881 12.3765 6.21164C14.5029 6.1472 16.7378 6.21838 18.929 6.28817C19.3405 6.30128 19.7504 6.31434 20.1577 6.32644C25.018 6.48221 32.5839 6.51963 38.4844 6.5488C39.8314 6.55546 41.0917 6.56169 42.2132 6.56881C45.8646 6.58799 49.6988 6.49818 53.4521 6.41026C57.1857 6.32281 60.8394 6.23723 64.1536 6.26267C75.2061 6.35253 86.2565 6.49513 97.3066 6.63773C114.493 6.85952 131.678 7.08129 148.867 7.10458C167.562 7.12645 186.257 6.98174 204.954 6.83701C218.98 6.72843 233.008 6.61985 247.038 6.58157C265.431 6.52772 283.824 6.54137 302.217 6.55502C318.674 6.56723 335.131 6.57945 351.588 6.54331C364.142 6.51442 376.694 6.52959 389.247 6.54475C415.496 6.57647 441.749 6.60819 468.026 6.23713C487.617 5.95484 507.354 6.17927 527.072 6.4035C534.085 6.48324 541.095 6.56295 548.096 6.61984C559.117 6.70913 566.312 5.40801 566.541 3.15017C566.743 1.13186 557.453 0.980965 551.064 0.877185C550.588 0.86946 550.129 0.861996 549.69 0.854042C509.241 0.126943 468.676 0.101433 428.125 0.139702C415.6 0.157933 398.065 0.0979966 386.261 0.0576463ZM281.518 18.93C270.42 19.0193 253.098 18.9938 248.212 18.9811C247.652 18.9811 247.118 19.0118 246.637 19.0395C246.242 19.0623 245.882 19.0831 245.571 19.0831C234.83 18.9898 223.512 19.0149 212.152 19.0402C204.867 19.0563 197.565 19.0725 190.388 19.0576C187.158 19.0491 183.923 19.1086 180.685 19.1681C179.084 19.1975 177.482 19.2269 175.88 19.2481C172.698 19.1096 169.546 19.2148 166.408 19.3195C164.96 19.3679 163.514 19.4161 162.07 19.4403C151.146 19.615 140.201 19.6269 129.252 19.6388C123.413 19.6452 117.573 19.6516 111.734 19.6826C84.3721 19.8102 57.0101 20.0015 29.661 20.5883C28.2722 20.6201 26.8851 20.6067 25.5021 20.5934C21.3336 20.5533 17.2029 20.5136 13.1801 21.7109C13.1163 21.7364 12.9759 21.7746 12.8994 21.7874C11.7182 22.0613 11.6168 22.4673 11.516 22.8705C11.4666 23.0682 11.4174 23.2652 11.2411 23.4457C8.83019 25.9587 10.7947 26.7113 18.1294 26.2138C19.5473 26.1117 21.0457 26.1609 22.5083 26.2089C22.6906 26.2149 22.8723 26.2209 23.0533 26.2265C25.9003 26.3224 30.2025 26.2886 33.7836 26.2605C34.9679 26.2512 36.0734 26.2425 37.0213 26.2393C39.3511 26.2329 41.7945 26.1095 44.1845 25.9889C46.5315 25.8704 48.827 25.7546 50.9127 25.7546C59.4846 25.7607 68.0536 25.8663 76.6211 25.9719C85.9412 26.0867 95.2595 26.2016 104.578 26.1883C115.588 26.1679 126.598 26.0253 137.609 25.8826C147.33 25.7566 157.052 25.6306 166.777 25.5887C177.816 25.5823 188.862 25.5728 199.908 25.5632C210.956 25.5536 222.004 25.5441 233.045 25.5377C239.194 25.5026 245.342 25.4891 251.492 25.4755C269.939 25.4348 288.391 25.3942 306.865 24.7723C317.761 24.3923 328.738 24.3761 339.719 24.3599C345.693 24.3511 351.669 24.3423 357.634 24.2748C364.624 24.2111 369.153 22.7951 369.242 20.5373C369.325 18.5329 363.442 18.5134 359.396 18.5001C359.09 18.4991 358.795 18.4981 358.514 18.4963C338.348 18.3959 318.15 18.5878 297.939 18.7798C292.466 18.8318 286.993 18.8838 281.518 18.93Z" fill="#4196F7"/>
</svg>
